<svg width="18" height="18" viewBox="0 0 18 18" fill="none" xmlns="http://www.w3.org/2000/svg">
<path fill-rule="evenodd" clip-rule="evenodd" d="M2.13332 7.85543C1.50125 7.85543 0.988866 8.36782 0.988866 8.99988C0.988867 9.63194 1.50126 10.1443 2.13332 10.1443L7.85544 10.1443L7.85545 15.8667C7.85545 16.4987 8.36784 17.0111 8.9999 17.0111C9.63196 17.0111 10.1444 16.4987 10.1444 15.8667L10.1443 10.1443L15.8667 10.1443C16.4988 10.1443 17.0112 9.63195 17.0112 8.99989C17.0112 8.36783 16.4988 7.85544 15.8667 7.85544L10.1443 7.85543L10.1443 2.13326C10.1443 1.50119 9.63195 0.988805 8.99989 0.988805C8.36783 0.988804 7.85544 1.50119 7.85544 2.13326L7.85544 7.85543L2.13332 7.85543Z" fill="#E5383B"/>
</svg>
